<svg width="326" height="91" viewBox="0 0 326 91" fill="none" xmlns="http://www.w3.org/2000/svg">
<path fill-rule="evenodd" clip-rule="evenodd" d="M114.337 0.142188C113.943 0.492608 114.433 0.852786 115.305 0.852786C115.828 0.852786 116.093 0.713505 116.008 0.483145C115.855 0.0691466 114.688 -0.168902 114.337 0.142188ZM59.5051 1.1485C59.5051 1.31114 59.6459 1.44421 59.8183 1.44421C59.9907 1.44421 60.2241 1.31114 60.3372 1.1485C60.4504 0.985857 60.3093 0.852786 60.024 0.852786C59.7388 0.852786 59.5051 0.985857 59.5051 1.1485ZM30.5472 1.4522C30.2726 1.61425 29.4081 1.89488 28.6266 2.07556C27.6916 2.29202 26.9644 2.70513 26.5017 3.28266C26.1146 3.76556 25.1793 4.39632 24.4231 4.68434C23.6671 4.97207 22.8324 5.4393 22.5677 5.72259C22.3031 6.00559 21.7436 6.35305 21.3242 6.4947C20.769 6.68247 20.5617 6.98795 20.5617 7.61781C20.5617 8.32279 20.3673 8.54369 19.5135 8.80806C18.937 8.98667 18.1834 9.13275 17.8386 9.13275C16.412 9.13275 16.8614 10.7763 18.3392 10.9632C18.9257 11.0374 19.0638 11.2521 19.0638 12.0899C19.0638 13.0196 19.2113 13.1879 20.5134 13.7429L21.9626 14.3613L21.017 14.9731C20.1063 15.5627 20.093 15.6065 20.6579 16.161C21.1804 16.6737 21.1887 16.7772 20.7364 17.1108C20.0121 17.6451 20.1093 18.2797 20.9584 18.5589C21.6524 18.7869 21.6401 18.8094 20.7094 19.017C19.7718 19.226 19.7578 19.2529 20.3759 19.6545C20.9161 20.0055 20.9328 20.0741 20.4784 20.0741C19.5391 20.0741 19.4846 20.6537 20.3952 20.9613C21.3595 21.2869 21.231 21.8484 20.1922 21.8484C19.3498 21.8484 18.465 23.6106 18.7683 24.684C18.9157 25.2065 18.7789 25.6915 18.3309 26.2338C17.7923 26.8859 17.6925 27.4324 17.7584 29.3696L17.8379 31.7161L19.2 32.7209C20.352 33.5714 20.5617 33.8972 20.5617 34.8388V35.9519L16.4842 35.8214C13.9566 35.7407 11.8373 35.8229 10.909 36.0376C10.0852 36.2283 8.64862 36.4927 7.71664 36.6252C5.36772 36.9591 4.1415 37.5937 2.77682 39.1816C1.80722 40.3098 1.66676 40.646 1.961 41.1345C2.37839 41.8274 2.02058 42.2606 0.973101 42.3307C0.0471122 42.3925 0.0620904 42.4445 1.30762 43.4781C2.10146 44.1369 2.26389 44.4329 1.97332 44.6911C1.44375 45.1615 1.49235 45.5055 2.08848 45.5055C2.36308 45.5055 2.58776 45.2917 2.58776 45.0303C2.58776 44.7183 2.76883 44.6168 3.11433 44.7345C3.4039 44.8333 3.70347 44.914 3.78003 44.914C3.85658 44.914 3.91916 45.4463 3.91916 46.0969C3.91916 46.9917 3.78735 47.2797 3.37828 47.2797C2.95722 47.2797 2.88066 47.4725 3.03344 48.15C3.19388 48.8633 3.06639 49.1265 2.32614 49.6088C1.62016 50.0686 1.51032 50.2759 1.8232 50.5577C2.13541 50.8392 2.07816 51.0826 1.56191 51.6658C0.982088 52.3205 0.960453 52.4663 1.3855 52.8442C1.81088 53.2218 1.76628 53.4158 1.02536 54.4106C0.416243 55.2285 0.223523 55.809 0.335693 56.4891C0.421568 57.0081 0.34468 57.9467 0.165274 58.5748C-0.10733 59.5297 -0.0617298 59.8141 0.445201 60.3115C1.02303 60.879 1.02436 60.9467 0.472827 61.7762C0.023147 62.4525 -0.0244505 62.7795 0.258139 63.2488C0.457849 63.5803 0.535403 63.9757 0.42989 64.1271C0.324709 64.2785 0.682523 64.8415 1.22507 65.378L2.21197 66.3532L2.73721 65.2443C3.14395 64.3853 3.44884 64.1354 4.08991 64.1354C5.14704 64.1354 5.14504 64.5263 4.08558 65.1432C3.62791 65.4096 3.2488 65.8573 3.24281 66.1382C3.2255 66.9893 1.67408 68.3392 0.948803 68.1346C0.0594277 67.8838 -0.23814 68.4729 0.581337 68.8624C0.975098 69.0495 1.25636 69.4828 1.25636 69.9018C1.25636 70.3374 1.54194 70.7561 1.98197 70.9652C2.66032 71.2878 2.66997 71.3348 2.12709 71.6876C1.27799 72.2391 1.11157 74.1234 1.80989 75.2758C2.35942 76.1824 2.35942 76.2584 1.80656 76.8011C1.27433 77.3236 1.27 77.4123 1.7553 77.8435C2.13941 78.1847 2.6713 78.2722 3.68483 78.1616C5.19264 77.9966 6.15158 78.3435 5.75649 78.9113C5.58873 79.1526 4.99892 79.2008 3.88321 79.0644C1.93703 78.8267 1.78293 79.1875 3.08404 80.9343C3.7301 81.8013 4.48167 82.2647 6.4831 83.0291C7.89605 83.5691 9.88217 84.1161 10.896 84.2451C11.9099 84.3737 13.3781 84.7072 14.158 84.9864C15.257 85.3794 15.6824 85.4155 16.0465 85.147C16.5472 84.7776 18.5522 84.9734 19.7049 85.5039C20.5284 85.8827 26.5297 86.2402 35.3735 86.4372C49.7689 86.7574 54.7484 86.9177 57.2101 87.1401C59.9801 87.3903 69.1578 86.9402 69.1578 86.5543C69.1578 86.4221 68.7833 86.3139 68.3256 86.3139C67.5388 86.3139 67.1999 85.9132 67.7431 85.6249C67.9598 85.5098 78.5265 85.888 80.7985 86.0921C81.4726 86.1527 81.6533 86.0099 81.7971 85.3031C82.0164 84.2246 82.8046 83.913 82.8046 84.9048V85.6148L86.882 85.6237C94.2943 85.6399 93.8669 85.6343 104.773 85.8635C116.973 86.1202 119.267 86.2257 120.228 86.5759C120.914 86.8257 122.668 86.8825 126.135 86.7663C130.103 86.6335 131.303 86.6888 132.273 87.049C133.704 87.5804 136.684 87.636 137.876 87.1534C139.323 86.5679 138.732 85.5388 137.226 86.0199C136.278 86.3224 132.083 86.1509 131.68 85.7931C131.452 85.5908 131.462 85.4279 131.71 85.2919C132.263 84.9882 140.82 84.9622 147.186 85.2443C152.588 85.4841 152.788 85.5148 152.07 85.9966C151.397 86.4472 151.374 86.5389 151.845 86.8861C152.134 87.0993 152.37 87.4311 152.37 87.6236C152.37 87.8164 152.782 88.1186 153.286 88.2954C154.129 88.5911 154.142 88.6192 153.452 88.6482C153.04 88.6654 152.703 88.8188 152.703 88.9889C152.703 89.1817 153.535 89.2651 154.915 89.2107C156.592 89.1444 157.216 88.9972 157.495 88.603C158.042 87.8291 157.101 86.5078 155.853 86.2982C155.04 86.1616 155.218 86.09 156.864 85.8919C158.831 85.655 165.911 85.6293 166.327 85.8576C166.444 85.9217 172.841 86.0477 180.543 86.137C188.245 86.2266 194.803 86.3872 195.116 86.494C195.429 86.6007 196.023 86.5277 196.435 86.3316C197.065 86.032 197.381 86.0779 198.41 86.6173C199.733 87.3107 199.841 87.4911 199.25 88.0166C198.958 88.2756 198.966 88.4675 199.283 88.807C199.949 89.52 201.703 89.6717 203.135 89.1403C204.415 88.6651 204.424 88.2466 203.158 88.0429C202.089 87.8711 202.199 87.2755 203.362 86.9387C205.067 86.4449 211.472 86.5416 211.965 87.0685C212.48 87.62 213.092 87.6129 213.618 87.0496C213.931 86.7146 214.148 86.6847 214.481 86.9307C214.934 87.2646 215.679 87.3004 218.94 87.1433C220.62 87.0626 220.78 87.1102 220.877 87.7197C220.955 88.2049 220.816 88.3839 220.362 88.3839C220.019 88.3839 219.586 88.2478 219.399 88.0813C219.017 87.7422 216.61 88.4945 216.61 88.9528C216.61 89.0989 217.276 89.5046 218.091 89.8547C219.331 90.3885 219.693 90.4331 220.328 90.1315C220.744 89.9334 221.758 89.7586 222.581 89.743C224.013 89.7157 224.079 89.6755 224.13 88.7967C224.219 87.2581 224.984 86.1781 226.062 86.0684C226.822 85.9912 226.979 86.0675 226.819 86.4381C226.689 86.7385 226.799 86.9053 227.127 86.9053C227.502 86.9053 227.609 87.1599 227.532 87.8664C227.44 88.7165 227.313 88.8274 226.429 88.8274C225.216 88.8274 225.032 89.6646 226.214 89.813C227.466 89.9704 228.593 89.6048 228.593 89.0415C228.593 88.6249 228.893 88.5279 230.174 88.5296C231.043 88.5308 232.11 88.4179 232.543 88.2789C233.144 88.0861 233.296 88.1213 233.182 88.4267C233.099 88.647 232.607 88.894 232.088 88.9753C230.177 89.2745 230.822 90.2468 233.139 90.5606C234.384 90.7289 234.664 90.6434 235.917 89.7137C237.003 88.9073 237.614 88.6763 238.693 88.6648C239.454 88.6565 240.711 88.6009 241.488 88.5415C242.789 88.4415 242.873 88.477 242.56 88.9963C242.373 89.3062 241.813 89.6403 241.315 89.7385C239.488 90.0993 239.244 90.2069 239.244 90.6526C239.244 91.0198 239.517 91.0716 240.659 90.9211C241.437 90.8185 245.165 90.6907 248.944 90.6369C255.34 90.5461 255.885 90.4952 256.818 89.905C257.369 89.5564 257.984 89.271 258.185 89.271C258.385 89.271 258.549 89.0794 258.549 88.8449C258.549 88.3478 258.728 88.2381 259.964 87.9755C260.733 87.8122 260.879 87.877 260.879 88.3782C260.879 88.7668 261.099 88.9753 261.509 88.9753C261.856 88.9753 262.221 89.1645 262.321 89.3958C262.533 89.887 263.662 89.7078 264.238 89.0912C264.798 88.4918 267.849 88.5423 268.357 89.1595C268.834 89.7391 269.799 89.528 271.116 88.5563C272.113 87.8214 273.009 87.5695 275.979 87.1901C277.32 87.0188 278.074 86.7586 278.389 86.3591C278.641 86.0394 279.533 85.4829 280.371 85.1224C281.209 84.762 282.296 84.1747 282.787 83.8175C283.593 83.2305 287.762 81.8782 288.765 81.8782C289.561 81.8782 289.154 81.1173 288.09 80.6149C286.8 80.0057 281.635 79.8351 279.838 80.3422C277.508 80.999 269.389 80.9674 271.531 80.3097C272.634 79.9711 275.204 79.5125 275.998 79.5125C276.462 79.5125 277.782 79.2587 278.93 78.9488C282.785 77.9076 283.333 77.821 284.112 78.1297C284.678 78.3539 284.957 78.3178 285.268 77.9798C285.493 77.7343 286.169 77.362 286.771 77.1518C288.212 76.6494 287.969 76.1614 286.149 75.9027C284.688 75.6948 276.443 75.8376 272.779 76.1342C271.703 76.2212 270.865 76.1691 270.865 76.0156C270.865 75.662 272.408 75.3929 275.525 75.203C278.853 75.0005 283.738 74.2346 285.162 73.6925C286.416 73.215 293.328 72.1217 295.102 72.1205C296.306 72.1196 297.493 71.6737 297.493 71.2221C297.493 71.0651 296.444 70.9368 295.163 70.9368C293.881 70.9368 292.833 70.8218 292.833 70.6813C292.833 69.6498 298.578 67.9797 302.126 67.9797C303.37 67.9797 303.414 67.9451 303.367 67.0186C303.323 66.1657 303.412 66.0637 304.15 66.1122C305.362 66.1915 308.523 65.5938 309.392 65.1207C309.804 64.8965 310.141 64.5166 310.141 64.2764C310.141 63.963 310.523 63.8397 311.494 63.8397C312.867 63.8397 317.131 62.6802 317.131 62.307C317.131 62.1946 316.644 62.0613 316.049 62.0101C314.396 61.8684 314.761 61.361 316.715 61.0845C319.514 60.6886 318.883 60.1805 315.883 60.4147C311.242 60.7773 308.342 60.8438 308.829 60.5765C309.085 60.4354 309.898 60.2408 310.634 60.1441C314.272 59.6654 318.475 58.5485 319.295 57.8423C319.51 57.6569 318.303 57.6137 315.883 57.7199C313.719 57.8148 312.138 57.7708 312.138 57.6152C312.138 57.0767 314.69 56.2088 316.887 55.9997C319.4 55.7605 320.246 55.264 318.139 55.264C317.198 55.264 316.714 55.1179 316.573 54.7906C316.262 54.0708 317.075 53.7949 319.523 53.7899C321.792 53.7854 323.455 53.4247 323.455 52.9373C323.455 52.4562 322.356 52.2149 319.295 52.0239C316.53 51.8515 316.373 51.8089 317.263 51.4715C317.793 51.2704 319.141 51.0385 320.258 50.956C322.759 50.7715 325.76 50.2174 325.981 49.8992C326.187 49.6032 324.73 49.2681 322.967 49.206C318.375 49.0446 317.981 49.0061 318.629 48.7831C319.087 48.6255 319.346 48.1944 319.461 47.3995C319.58 46.5691 319.838 46.1628 320.376 45.9529C321.353 45.572 321.321 45.3198 320.231 44.8126L319.337 44.3962L320.065 43.9926C321.071 43.4346 320.976 43.193 319.711 43.0845C318.936 43.0182 318.669 42.8659 318.771 42.5483C318.849 42.3044 318.937 41.7399 318.967 41.2936C318.996 40.8474 319.305 40.2033 319.652 39.8624C320.254 39.2718 320.256 39.2236 319.696 38.8602C319.168 38.5166 319.162 38.4598 319.645 38.2954C319.94 38.1948 320.553 38.1126 321.008 38.1126C321.676 38.1126 321.796 38.0017 321.631 37.5392C321.402 36.897 322.255 36.3384 323.465 36.3384C323.895 36.3384 324.251 36.1092 324.351 35.7673C324.444 35.4533 324.729 35.1247 324.986 35.0375C325.242 34.95 325.452 34.7057 325.452 34.4946C325.452 34.1601 323.308 33.6145 319.128 32.885L318.296 32.7398L319.079 32.1756C319.631 31.7779 319.729 31.5771 319.411 31.4952C319.164 31.431 318.311 31.2213 317.516 31.0291C316.164 30.7021 316.105 30.6459 316.601 30.1588C317.406 29.3687 317.267 29.2439 315.55 29.2117C314.681 29.1954 313.595 29.0807 313.137 28.9568C312.358 28.7456 312.348 28.7175 312.97 28.5185C313.337 28.4017 313.98 28.1838 314.401 28.0344C314.821 27.8848 315.608 27.7627 316.148 27.7627C316.689 27.7627 317.131 27.65 317.131 27.5125C317.131 27.2709 311.552 26.9125 306.677 26.8406L304.316 26.806L305.981 26.5378C306.896 26.3903 308.693 26.2185 309.975 26.1558C313.415 25.9878 317.131 25.3526 317.131 24.9324C317.131 24.5285 316.394 24.2141 315.446 24.2141C314.832 24.2141 314.831 24.1875 315.417 23.2531C315.937 22.423 316.219 22.2807 317.49 22.2086C319.934 22.0702 320.091 21.7913 317.963 21.3714C316.685 21.1192 315.008 21.0402 313.303 21.1514C311.346 21.2792 310.161 21.1987 308.832 20.8474C307.838 20.5848 305.854 20.3698 304.422 20.3698C302.991 20.3698 301.82 20.2569 301.82 20.1191C301.82 19.8707 306.849 19.1533 307.811 19.2642C308.855 19.3848 319.293 18.8182 319.938 18.6059C320.607 18.3862 320.607 18.3815 319.955 18.2138C319.592 18.1204 315.775 17.8947 311.473 17.712C297.179 17.1058 294.164 16.7944 294.164 15.9238C294.164 15.7612 292.698 15.6248 290.753 15.6071C288.876 15.5899 285.993 15.4817 284.345 15.3664C281.571 15.1724 281.454 15.1393 282.758 14.9172C284.195 14.6726 284.405 14.1599 283.068 14.1599C282.662 14.1599 281.959 13.9289 281.507 13.6462C280.848 13.2349 280.073 13.1456 277.613 13.1964C274.833 13.2544 273.452 13.1086 269.866 12.3791C269.048 12.2126 269.791 12.1437 272.363 12.1475C274.376 12.1505 277.447 12.0183 279.186 11.8536C280.925 11.6889 282.536 11.5416 282.764 11.5263C282.993 11.5109 283.18 11.3799 283.18 11.235C283.18 10.8668 278.335 10.6764 276.523 10.9736C275.613 11.1229 274.438 11.0972 273.528 10.9085C271.619 10.5123 267.785 10.2795 264.374 10.3529C255.969 10.5335 251.975 10.4673 250.894 10.1299C249.801 9.78835 249.784 9.76469 250.625 9.74488C251.117 9.73364 251.61 9.59495 251.72 9.43674C252.127 8.85182 250.864 7.71747 249.464 7.41259C248.658 7.23694 242.631 7.07695 235.25 7.03585C222.012 6.96163 221.563 6.96577 215.445 7.20855C209.238 7.45517 209.121 7.46907 209.121 7.9499C209.121 8.26602 209.424 8.37277 210.175 8.32161C210.871 8.2743 211.907 8.59041 213.22 9.24956C215.034 10.1604 215.258 10.2077 215.736 9.78243C216.329 9.25636 216.791 9.47105 216.502 10.1388C216.398 10.3807 215.779 10.6675 215.127 10.7763C214.475 10.8849 213.576 11.2291 213.13 11.5413C212.327 12.1023 212.314 12.1017 211.956 11.5079C211.67 11.033 211.262 10.907 210.008 10.907C209.136 10.907 208.245 10.75 208.029 10.5581C207.728 10.2902 207.462 10.2908 206.881 10.5613C206.466 10.7547 205.152 10.9452 203.962 10.9842C201.944 11.0502 201.792 11.0102 201.692 10.3895C201.606 9.85252 201.746 9.72418 202.414 9.72418C203.755 9.72418 204.295 9.4122 204.295 8.63773C204.295 8.06168 204.425 7.94665 204.917 8.08534C205.258 8.18174 205.97 8.10988 206.498 7.92536C207.44 7.59593 207.444 7.5844 206.73 7.28987C206.305 7.11451 205.229 7.07577 204.141 7.19642C202.675 7.35906 202.3 7.50574 202.372 7.8875C202.514 8.63477 201.289 8.71757 201.07 7.97563C200.926 7.48533 200.606 7.3496 199.513 7.31559C195.856 7.20115 194.975 7.50189 194.975 8.86277C194.975 9.90131 194.078 10.3839 192.382 10.2588C191.413 10.1873 191.125 10.0311 191.045 9.53315C190.91 8.69007 189.873 7.88898 188.92 7.89164C166.768 7.95818 160.103 8.05843 159.527 8.33462C159.16 8.51028 158.112 8.69391 157.197 8.74271C156.281 8.79179 154.461 8.89027 153.152 8.96213C151.067 9.07598 150.752 9.026 150.615 8.55966C150.509 8.20096 149.928 7.92536 148.835 7.71569C147.055 7.37415 141.253 7.37799 140.867 7.72102C140.735 7.83901 140.821 8.14507 141.061 8.40116C141.732 9.11944 140.738 9.8126 138.991 9.84542C137.876 9.86612 137.586 9.77386 137.681 9.42846C137.994 8.3018 137.876 8.09716 136.893 8.05281C136.344 8.02797 135.295 7.80086 134.563 7.54832C133.831 7.29549 132.855 7.08287 132.395 7.07577C131.856 7.06749 131.442 6.82649 131.23 6.39918C131.049 6.03427 130.602 5.68592 130.236 5.62559C129.87 5.56527 129.486 5.3973 129.383 5.25241C129.151 4.92594 126.075 5.27192 126.075 5.62441C126.075 5.76488 126.758 5.87991 127.593 5.87991C128.52 5.87991 129.03 5.99494 128.904 6.17562C128.791 6.33826 127.708 6.47133 126.498 6.47133C124.907 6.47133 124.126 6.60855 123.681 6.96636C123.15 7.39307 122.755 7.42116 120.826 7.16951C118.511 6.86759 114.043 7.06128 110.664 7.61013C109.443 7.80855 108.435 7.82304 107.921 7.64975C107.475 7.49894 106.023 7.38065 104.693 7.38716C103.364 7.39337 101.499 7.30672 100.55 7.19494C99.1046 7.02432 98.6336 7.09558 97.653 7.63408C96.5783 8.22432 96.4185 8.23999 95.7079 7.82629C94.6584 7.21564 89.3009 7.1154 86.3977 7.65271C84.3853 8.02501 84.1064 8.01791 83.5625 7.58026C83.0639 7.17957 82.6126 7.13758 80.9679 7.33984C79.8729 7.47439 78.7505 7.47942 78.4742 7.35108C77.8005 7.03851 72.4124 6.88563 71.9038 7.16478C71.6824 7.28632 71.1772 7.23161 70.7807 7.04324C70.2259 6.77947 69.7556 6.78982 68.7357 7.08908C67.5378 7.44009 67.2955 7.4188 66.2041 6.86582C65.1419 6.32762 64.857 6.29805 63.8282 6.6186C63.0959 6.84689 61.6913 6.92792 60.0663 6.83506C57.5952 6.6943 57.4335 6.64048 56.619 5.69213C55.6004 4.50573 55.0835 4.44097 54.5729 5.43634C54.1499 6.26167 54.3206 6.246 49.5496 5.89499C47.1863 5.72111 45.833 5.74181 45.2941 5.96005C44.7079 6.19721 43.9257 6.17266 42.2685 5.86453C41.0393 5.63594 38.695 5.47744 37.059 5.51234C34.8972 5.55876 34.1845 5.4872 34.4505 5.25093C34.6515 5.07232 35.5409 4.86472 36.4263 4.78991C37.3117 4.71509 38.3731 4.5081 38.7845 4.33008C39.1963 4.15176 39.6343 4.09617 39.7581 4.20617C40.0214 4.43979 41.193 2.95678 41.196 2.38606C41.1977 2.10188 40.6375 2.00725 39.118 2.03446C34.2621 2.1214 32.6045 2.01287 32.2008 1.58083C31.7311 1.07782 31.2458 1.03997 30.5472 1.4522ZM70.4892 1.59207C70.4892 1.86797 70.8034 2.03564 71.3213 2.03564C71.8392 2.03564 72.1534 1.86797 72.1534 1.59207C72.1534 1.31617 71.8392 1.1485 71.3213 1.1485C70.8034 1.1485 70.4892 1.31617 70.4892 1.59207ZM222.269 1.41257C222.269 1.55777 222.493 1.75323 222.768 1.84697C223.884 2.22726 223.134 2.49754 220.854 2.53717C209.561 2.73204 207.782 2.8042 207.711 3.07063C207.664 3.24717 208.671 3.37404 210.207 3.38586C211.624 3.39651 213.831 3.55501 215.113 3.73835C216.394 3.9217 220.438 4.17128 224.099 4.29282C229.609 4.47616 230.412 4.55511 228.759 4.75088C227.661 4.88099 223.542 5.00785 219.606 5.03269C215.331 5.0596 212.115 5.20627 211.618 5.3973C210.939 5.65812 211.581 5.7563 215.113 5.93047C217.492 6.04787 220.791 6.14309 222.443 6.14161C224.095 6.14043 225.821 6.26581 226.279 6.42047C227.269 6.75463 244.256 6.27025 244.682 5.89558C244.836 5.76074 242.18 5.55285 238.779 5.43368C232.549 5.21514 230.481 4.69587 235.852 4.69853C238.147 4.69972 239.242 4.53915 241.152 3.9217C242.475 3.4938 243.491 3.04668 243.409 2.92869C243.146 2.55107 238.668 2.31568 237.736 2.63061C237.15 2.82845 236.437 2.83229 235.634 2.64155C234.518 2.37689 231.662 2.30296 227.428 2.42953C225.935 2.47418 225.753 2.4106 225.657 1.81385C225.563 1.22657 225.358 1.1485 223.91 1.1485C223.007 1.1485 222.269 1.26738 222.269 1.41257ZM246.567 2.92278C246.567 3.08542 246.801 3.21849 247.086 3.21849C247.371 3.21849 247.512 3.08542 247.399 2.92278C247.286 2.76014 247.052 2.62706 246.88 2.62706C246.708 2.62706 246.567 2.76014 246.567 2.92278ZM44.8813 3.34328C44.6653 3.57453 43.8974 3.8525 43.1748 3.96073C42.4525 4.06926 41.9456 4.27921 42.0488 4.42766C42.3194 4.81682 44.5269 4.75975 44.5269 4.36349C44.5269 4.14082 44.9629 4.09203 45.8383 4.21623C47.3428 4.43003 47.9745 3.94772 47.0106 3.3214C46.2164 2.80568 45.3756 2.81425 44.8813 3.34328ZM170.185 3.20814C169.714 3.88444 170.729 4.40134 172.529 4.40134C175.479 4.40134 175.188 3.44589 172.128 3.08039C170.989 2.94436 170.339 2.98724 170.185 3.20814ZM190.723 3.14693C190.499 3.21346 190.315 3.39444 190.315 3.54969C190.315 3.92938 196.619 3.749 196.724 3.36635C196.803 3.07891 191.596 2.88848 190.723 3.14693ZM202.298 3.21849C202.298 3.38113 202.522 3.5142 202.797 3.5142C203.072 3.5142 203.296 3.38113 203.296 3.21849C203.296 3.05585 203.072 2.92278 202.797 2.92278C202.522 2.92278 202.298 3.05585 202.298 3.21849ZM50.0795 3.65023C49.7683 3.92702 49.5852 4.25644 49.6731 4.38271C49.8302 4.60864 52.5918 4.50869 54.1446 4.22066C55.4081 3.98646 54.5077 3.50149 52.46 3.31371C51.0214 3.18182 50.5285 3.25161 50.0795 3.65023ZM161.884 3.47458C161.741 3.68069 161.713 3.92909 161.823 4.02667C162.121 4.29134 162.446 3.90218 162.285 3.4734C162.172 3.17295 162.094 3.17295 161.884 3.47458ZM59.089 4.41909C57.763 5.11874 58.9017 6.0529 60.4577 5.54161C60.9347 5.38459 61.1773 5.09775 61.1074 4.77246C60.977 4.16477 59.9212 3.97966 59.089 4.41909ZM156.697 4.67961C156.697 4.83279 156.847 5.04008 157.03 5.14063C157.213 5.24117 157.363 5.11579 157.363 4.86236C157.363 4.60893 157.213 4.40134 157.03 4.40134C156.847 4.40134 156.697 4.52643 156.697 4.67961ZM84.8017 5.53097C84.8017 5.94733 87.338 6.2809 90.6802 6.30455C93.2744 6.32259 94.1804 6.12949 93.6618 5.66847C93.2574 5.30948 84.8017 5.17818 84.8017 5.53097ZM97.1172 5.49105C95.405 5.7424 95.2525 5.9355 96.4515 6.33442C98.0471 6.86522 99.9421 6.86256 100.441 6.3285C100.781 5.96448 100.699 5.83851 99.961 5.58922C99.061 5.28523 98.624 5.27015 97.1172 5.49105ZM31.7953 5.78794C31.4748 5.86246 30.9509 5.86246 30.6304 5.78794C30.3098 5.71372 30.5721 5.6528 31.2129 5.6528C31.8536 5.6528 32.1159 5.71372 31.7953 5.78794ZM144.724 5.86838C143.988 6.28178 144.333 6.3909 146.795 6.52486C148.378 6.61121 149.042 6.54408 149.042 6.29805C149.042 5.63683 145.724 5.30682 144.724 5.86838ZM249.146 5.78291C248.069 6.04285 248.552 6.47133 249.923 6.47133C250.862 6.47133 251.24 6.35689 251.145 6.10169C250.997 5.70278 250.083 5.55699 249.146 5.78291ZM102.942 6.17562C102.829 6.33826 102.979 6.47133 103.275 6.47133C103.571 6.47133 103.721 6.33826 103.608 6.17562C103.495 6.01298 103.345 5.87991 103.275 5.87991C103.205 5.87991 103.055 6.01298 102.942 6.17562ZM153.206 6.47607C153.321 6.64137 153.554 6.70022 153.725 6.60648C154.186 6.35305 154.1 6.17562 153.516 6.17562C153.23 6.17562 153.091 6.31076 153.206 6.47607ZM174.338 6.76705C174.338 6.92969 174.722 7.06276 175.19 7.06276C175.673 7.06276 175.953 6.93472 175.836 6.76705C175.723 6.60441 175.34 6.47133 174.984 6.47133C174.629 6.47133 174.338 6.60441 174.338 6.76705ZM181.828 7.06276C181.705 7.23871 182.101 7.35847 182.806 7.35847C183.458 7.35847 183.991 7.2254 183.991 7.06276C183.991 6.90012 183.551 6.76705 183.012 6.76705C182.474 6.76705 181.941 6.90012 181.828 7.06276ZM143.966 9.00944C143.649 9.29125 143.013 8.83497 143.249 8.49519C143.39 8.29322 143.576 8.29825 143.815 8.51057C144.011 8.68475 144.079 8.90919 143.966 9.00944ZM247.099 9.28061C247.099 10.2381 247.023 10.3153 246.084 10.3112C245.417 10.3082 245.218 10.2225 245.504 10.0613C245.787 9.9019 245.862 9.54113 245.718 9.03073C245.524 8.34379 245.596 8.24561 246.298 8.24561C246.992 8.24561 247.099 8.3843 247.099 9.28061ZM250.062 8.67854L251.06 9.08485L250.019 9.1088C249.447 9.12181 248.792 8.93315 248.564 8.68918C248.024 8.11136 248.657 8.10692 250.062 8.67854ZM253.057 8.83704C252.674 9.38825 253.156 9.57632 254.856 9.53936C257.37 9.48465 257.457 9.45833 256.738 8.97543C256.008 8.48484 253.371 8.38578 253.057 8.83704ZM211.067 9.29332C210.958 9.54438 210.953 9.82383 211.055 9.91432C211.347 10.1734 211.95 9.73423 211.95 9.26316C211.95 8.69569 211.315 8.71757 211.067 9.29332ZM200.966 9.39682C200.966 9.69668 199.953 10.1051 199.721 9.89865C199.637 9.82443 199.667 9.62157 199.788 9.44828C200.053 9.06651 200.966 9.02659 200.966 9.39682ZM26.2201 10.1503C26.2201 10.2222 26.0703 10.3629 25.8873 10.4635C25.7042 10.564 25.5544 10.5052 25.5544 10.3331C25.5544 10.1609 25.7042 10.0199 25.8873 10.0199C26.0703 10.0199 26.2201 10.0784 26.2201 10.1503ZM245.129 10.6852C245.734 11.051 246.23 11.4364 246.232 11.5413C246.236 11.9074 243.675 11.9453 242.38 11.5981C241.662 11.4056 241.337 11.2379 241.657 11.2255C241.977 11.2131 242.24 11.0141 242.24 10.7837C242.24 9.86967 243.699 9.81999 245.129 10.6852ZM22.8014 10.4942C22.6909 10.5924 22.4037 10.603 22.1637 10.5176C21.8981 10.4232 21.9769 10.3532 22.3647 10.339C22.7155 10.3262 22.9119 10.396 22.8014 10.4942ZM200.528 11.2583C200.422 11.494 200.343 11.4239 200.327 11.0794C200.313 10.7677 200.391 10.5933 200.502 10.6915C200.612 10.7896 200.624 11.0448 200.528 11.2583ZM238.902 11.4869C239.677 11.9225 239.188 12.0665 237.585 11.8755C236.437 11.7389 236.251 11.6481 236.759 11.4718C237.662 11.1581 238.325 11.1628 238.902 11.4869ZM250.87 11.5351C252.449 12.0242 251.675 12.3841 249.478 12.1824C248.184 12.0639 247.565 11.877 247.565 11.6049C247.565 11.1058 249.361 11.0679 250.87 11.5351ZM255.304 12.1402C256.821 12.6142 256.914 12.977 255.521 12.977C254.348 12.977 252.225 12.1718 252.225 11.727C252.225 11.3944 253.439 11.5573 255.304 12.1402ZM286.08 13.871C285.39 14.5866 285.369 14.7513 285.969 14.7513C286.636 14.7513 287.348 13.8996 286.965 13.5596C286.767 13.3836 286.438 13.4995 286.08 13.871ZM289.255 14.2338C289.331 14.4373 289.718 14.594 290.115 14.5824C293.739 14.4763 294.184 14.4278 293.998 14.1599C293.68 13.7033 289.083 13.7749 289.255 14.2338ZM286.931 19.381C286.706 19.462 286.257 19.467 285.933 19.3919C285.609 19.3168 285.793 19.2506 286.342 19.2447C286.892 19.2387 287.157 19.3 286.931 19.381ZM295.163 65.6139C294.888 65.7716 294.289 65.9005 293.832 65.9005C293.173 65.9005 293.104 65.8408 293.499 65.6139C293.773 65.4563 294.372 65.3274 294.83 65.3274C295.489 65.3274 295.558 65.3871 295.163 65.6139ZM301.154 67.0925C301.154 67.2566 300.376 67.3726 299.407 67.3533C297.913 67.3235 297.804 67.2856 298.658 67.0925C300.137 66.7581 301.154 66.7581 301.154 67.0925ZM265.206 79.6429C265.206 79.9548 264.568 80.0861 264.378 79.8129C264.263 79.6476 264.402 79.5125 264.688 79.5125C264.973 79.5125 265.206 79.571 265.206 79.6429ZM189.239 82.3853C188.739 82.4527 187.84 82.4539 187.242 82.3883C186.644 82.3223 187.053 82.267 188.152 82.2655C189.25 82.2638 189.74 82.3176 189.239 82.3853ZM201.632 82.7337C201.632 83.1193 200.753 83.3567 199.324 83.3567C198.634 83.3567 197.592 83.5049 197.007 83.6862C196.133 83.9567 195.837 83.9304 195.35 83.5383C194.607 82.9413 193.849 82.9288 193.311 83.5046C192.654 84.2081 191.82 84.0484 191.765 83.2086L191.717 82.4696H196.675C199.401 82.4696 201.632 82.5885 201.632 82.7337ZM211.118 83.2139C212.399 83.4552 214.234 83.6524 215.196 83.6524C216.157 83.6524 216.943 83.7728 216.943 83.9198C216.943 84.327 206.268 84.0605 205.195 83.6261C204.7 83.4259 204.295 83.15 204.295 83.0134C204.295 82.6124 208.592 82.7387 211.118 83.2139ZM6.99802 84.4396C6.37226 84.6641 6.49708 85.5299 7.26064 86.258C8.28914 87.2391 8.6899 87.0801 8.41962 85.7987C8.08278 84.2045 7.96595 84.0928 6.99802 84.4396ZM128.989 84.9092C128.913 85.1159 128.166 85.3185 127.297 85.3691C126.069 85.4403 125.742 85.3625 125.742 84.9994C125.742 84.6437 126.126 84.5396 127.434 84.5396C128.639 84.5396 129.087 84.646 128.989 84.9092ZM196.806 84.8353C196.919 84.9979 196.853 85.131 196.659 85.131C196.465 85.131 196.306 84.9979 196.306 84.8353C196.306 84.6727 196.372 84.5396 196.453 84.5396C196.534 84.5396 196.693 84.6727 196.806 84.8353ZM147.378 86.3082C147.378 86.6362 148.974 87.0644 149.257 86.8127C149.358 86.7225 149.343 86.507 149.222 86.3337C148.947 85.9374 147.378 85.9161 147.378 86.3082ZM216.444 86.3139C216.557 86.4765 216.332 86.6096 215.945 86.6096C215.557 86.6096 215.332 86.4765 215.445 86.3139C215.559 86.1512 215.783 86.0181 215.945 86.0181C216.106 86.0181 216.331 86.1512 216.444 86.3139ZM158.518 86.6244C158.201 87.0792 158.635 87.3725 159.062 86.9928C159.301 86.7805 159.307 86.6152 159.079 86.4904C158.893 86.3881 158.64 86.4484 158.518 86.6244ZM163.858 86.8997C163.418 87.5316 164.156 87.793 165.469 87.471C166.488 87.2208 166.887 87.2519 167.539 87.6316C167.984 87.8903 168.347 88.2679 168.347 88.4714C168.347 88.6745 168.875 89.0936 169.521 89.4026C170.439 89.8414 170.783 89.8864 171.097 89.6072C171.665 89.1027 170.776 87.7711 169.5 87.214C168.201 86.6468 164.189 86.4236 163.858 86.8997ZM142.283 87.0942C141.936 87.4027 142.375 87.7924 143.07 87.7924C143.426 87.7924 143.716 87.5928 143.716 87.3489C143.716 86.9103 142.694 86.7287 142.283 87.0942ZM95.7858 87.4967C95.7858 87.6594 95.9266 87.7924 96.099 87.7924C96.2714 87.7924 96.5047 87.6594 96.6179 87.4967C96.7311 87.3341 96.5899 87.201 96.3047 87.201C96.0194 87.201 95.7858 87.3341 95.7858 87.4967ZM180.579 87.5204C180.259 87.6863 179.997 87.9483 179.997 88.1029C179.997 88.4924 182.776 88.4575 183.221 88.0624C183.482 87.8309 183.646 87.8309 183.807 88.0624C184.146 88.5497 185.322 88.4477 185.322 87.9311C185.322 87.3237 184.372 87.0321 183.668 87.4228C183.322 87.6147 182.916 87.6348 182.63 87.4742C182.018 87.1297 181.303 87.146 180.579 87.5204ZM205.795 88.0855C205.683 88.2466 206.125 88.6045 206.777 88.8809C207.681 89.2639 208.055 89.3012 208.351 89.0383C208.647 88.7754 208.451 88.5861 207.527 88.2428C206.092 87.7105 206.058 87.7073 205.795 88.0855ZM176.505 88.3886C176.62 88.5539 176.854 88.6127 177.024 88.519C177.486 88.2656 177.4 88.0881 176.815 88.0881C176.53 88.0881 176.39 88.2233 176.505 88.3886ZM252.392 88.6796C252.279 88.8422 251.961 88.9753 251.687 88.9753C251.412 88.9753 251.28 88.8422 251.393 88.6796C251.506 88.5169 251.824 88.3839 252.098 88.3839C252.373 88.3839 252.505 88.5169 252.392 88.6796ZM147.877 88.9753C147.756 89.1483 148.102 89.271 148.709 89.271C149.316 89.271 149.662 89.1483 149.541 88.9753C149.428 88.8126 149.053 88.6796 148.709 88.6796C148.364 88.6796 147.99 88.8126 147.877 88.9753ZM164.353 89.2884C164.353 89.4605 164.503 89.5194 164.686 89.4188C164.869 89.3183 165.019 89.1775 165.019 89.1057C165.019 89.0338 164.869 88.9753 164.686 88.9753C164.503 88.9753 164.353 89.1163 164.353 89.2884Z" fill="#E1B366"/>
</svg>
