<svg width="300" height="65" viewBox="0 0 300 65" fill="none" xmlns="http://www.w3.org/2000/svg">
<path fill-rule="evenodd" clip-rule="evenodd" d="M106.337 1.89411C103.844 2.65919 89.0582 9.5451 73.4789 17.196C32.7302 37.2055 13.8811 38.5094 5.67786 21.8897C0.869238 12.1446 -1.67783 16.1181 1.23408 28.8202C4.34767 42.3935 9.30577 49.1732 21.6854 56.7738C31.7717 62.9671 36.5758 64.0785 53.2904 64.0785C76.7987 64.0785 94.9952 57.874 123.854 40.0173C134.735 33.2879 146.592 27.7787 150.202 27.7787C153.811 27.7787 168.364 34.564 182.539 42.8571C212.154 60.1805 226.67 64.986 249.438 65C278.824 65.0167 300.209 46.1827 299.998 20.4685L299.91 9.62881L296.783 18.4832C289.581 38.8893 270.12 38.4202 226.6 16.7967C185.659 -3.54238 171.761 -4.91057 157.39 9.98909L150.308 17.3327L145.318 11.7343C142.574 8.65717 138.101 4.72554 135.379 2.99712C130.432 -0.141418 114.894 -0.730646 106.337 1.89411Z" fill="#E1B366"/>
</svg>
